<svg width="444" height="838" viewBox="0 0 444 838" fill="none" xmlns="http://www.w3.org/2000/svg">
<path d="M299.5 208C249.52 182.003 108.996 18.3048 99.5 0.5L111.954 94L63.9738 334.925L0 676.329C70.1379 734.723 172.134 818.76 254.5 834C357.458 853.05 368.349 792.496 363.851 735.719C359.353 678.943 425.326 693.137 438.82 664.002C452.315 634.867 434.322 598.261 425.326 575.85C416.329 553.438 399.836 485.503 408.833 454.5C417.829 423.497 456.313 412.992 408.833 373.025C361.352 333.057 354.5 338.997 354.5 306.5C354.5 274.003 361.974 240.497 299.5 208Z" fill="url(#paint0_linear_5_50)"/>
<defs>
<linearGradient id="paint0_linear_5_50" x1="263" y1="94" x2="263" y2="873" gradientUnits="userSpaceOnUse">
<stop stop-color="#00FFB2"/>
<stop offset="1" stop-color="#0057FF"/>
</linearGradient>
</defs>
</svg>
