<svg width="362" height="712" viewBox="0 0 362 712" fill="none" xmlns="http://www.w3.org/2000/svg">
<path d="M11 187C-7.40004 136.6 36 100.667 60 89C60 83.3333 67 68.6 95 55C130 38 93 34 167 10C241 -14 200 15 259 34C318 53 316 24 350 111C384 198 332 142 316 229C300 316 363 256 337 378C311 500 307 417 285 516C263 615 293 599 259 654C225 709 248 691 194 708C140 725 90 676 60 676C29.9999 676 1.00001 598 1.00001 563C1.00001 528 85 558 66 478C47 398 -1.99999 461 1.00001 399C4.00001 337 71 322 66 256C61 190 34 250 11 187Z" fill="url(#paint0_linear_14_2)"/>
<defs>
<linearGradient id="paint0_linear_14_2" x1="181.087" y1="0.911072" x2="181.087" y2="711.584" gradientUnits="userSpaceOnUse">
<stop stop-color="#FF00B8"/>
<stop offset="1" stop-color="#FAFF00"/>
</linearGradient>
</defs>
</svg>
