<svg width="349" height="672" viewBox="0 0 349 672" fill="none" xmlns="http://www.w3.org/2000/svg">
<path d="M343 212C338.2 172.8 283 132.333 256 117C250 99.6666 238.8 57.6 242 28C246 -9 210 3.99998 154 0.999977C98 -2.00002 124 20 91 83C58 146 59 104 16 152C-27 200 32 205 52 281C72 357 40 324 28 431C16 538 24 513 32 562C40 611 46 573 91 597C136 621 117 630 146 648C175 666 185 674 210 671C235 668 249 649 271 643C293 637 323 584 323 544C323 504 278 474 283 434C288 394 323 405 343 369C363 333 323 322 323 273C323 224 349 261 343 212Z" fill="url(#paint0_linear_12_2)"/>
<defs>
<linearGradient id="paint0_linear_12_2" x1="174.632" y1="0.733337" x2="174.632" y2="671.616" gradientUnits="userSpaceOnUse">
<stop stop-color="#00E0FF"/>
<stop offset="1" stop-color="#FAFF00"/>
</linearGradient>
</defs>
</svg>
